# xmcd
#
# Track frame offsets: 
#        150
#        5689
#        26560
#        42758
#        60781
#        78935
#        97473
#        118451
#        142640
#        164699
#        182844
#        198126
#        216501
#        252116
#        278505
#        289145
#        307372
#
# Disc length: 4300 seconds
#
# Revision: 0
# Processed by: cddbd v1.5.2PL0 Copyright (c) Steve Scherf et al.
# Submitted via: ExactAudioCopy v0.99pb4
#
DISCID=f810ca11
DTITLE=Caroline Aiken - Blues Garage Isernhagen Germany May 20 2006
DYEAR=1900
DGENRE=
TTITLE0=Intro Blues Garage
TTITLE1=(Instrumental Intro)
TTITLE2=Haul Off And Kiss Me [Ride The Wood]
TTITLE3=Die Happy
TTITLE4=Love Ain't Going Nowhere [Mothers Finest]
TTITLE5=Fragile [Ralston Bowles]
TTITLE6=We're Having A War [Caroline Aiken\\Moses Mo]
TTITLE7=Come See Me Baby [Douglas Peters]
TTITLE8=Coyote [Joni Mitchell]
TTITLE9=Fourty Thousand Headmen [Stevie Winwood]
TTITLE10=Inside Out
TTITLE11=Dixie Chicken [Lowell George\\Little Feat]
TTITLE12=Speed and Steel\\Dry Spell [Ride The Wood]
TTITLE13=Left Wet
TTITLE14=Turtle Dove
TTITLE15=Day By Day
TTITLE16=Fishin' Blues [Henry Thomas]
EXTD=
EXTT0=
EXTT1=
EXTT2=
EXTT3=
EXTT4=
EXTT5=
EXTT6=
EXTT7=
EXTT8=
EXTT9=
EXTT10=
EXTT11=
EXTT12=
EXTT13=
EXTT14=
EXTT15=
EXTT16=
PLAYORDER=
